<svg width="1012" height="910" fill="none" xmlns="http://www.w3.org/2000/svg"><mask id="a" maskUnits="userSpaceOnUse" x="0" y="0" width="1012" height="910"><rect width="1012" height="910" rx="80" fill="#C4C4C4"/></mask><g mask="url(#a)"><path fill-rule="evenodd" clip-rule="evenodd" d="M243 0v206H19c-6.466 0-12.812.511-19 1.496V80C0 35.817 35.817 0 80 0h163zm30 0v206h-5c66.274 0 120 53.726 120 120v-1h236v1c0-66.274 53.726-120 120-120h-4V0H273zm497 0v206h223c6.465 0 12.81.511 19 1.496v30.513A90.34 90.34 0 00993 236H744c-49.706 0-90 40.294-90 90v114h358V238.009c40.58 8.721 71 44.804 71 87.991v261c0 43.187-30.42 79.27-71 87.991V470H654v117c0 49.706 40.294 90 90 90h249a90.34 90.34 0 0019-2.009v30.513A120.832 120.832 0 01993 707H771v203h-30V707h3c-66.274 0-120-53.726-120-120v3H388v-3c0 66.274-53.726 120-120 120h4v203h-30V707H19c-6.466 0-12.812-.511-19-1.496v-30.513A90.372 90.372 0 0019 677h249c49.706 0 90-40.294 90-90V470H0v204.991C-40.581 666.27-71 630.187-71 587V326c0-43.187 30.419-79.27 71-87.991V440h358V326c0-49.706-40.294-90-90-90H19c-6.518 0-12.875.693-19 2.009v-30.513C-57.245 216.602-101 266.191-101 326v261c0 59.809 43.755 109.398 101 118.504V830c0 44.183 35.817 80 80 80h162v2h30v-2h469v2h30v-2h161c44.183 0 80-35.817 80-80V705.504c57.25-9.106 101-58.695 101-118.504V326c0-59.809-43.75-109.398-101-118.504V80c0-44.183-35.817-80-80-80H770zM624 560H388V355h236v205z" fill="#F0D93C"/></g></svg>